<svg width="160" height="100" viewBox="0 0 160 100" fill="none" xmlns="http://www.w3.org/2000/svg">
<path d="M0 10C0 4.47716 4.47715 0 10 0H150C155.523 0 160 4.47715 160 10V90C160 95.5228 155.523 100 150 100H10C4.47715 100 0 95.5229 0 90V10Z" fill="#141C24"/>
<rect width="160" height="15" fill="#202B37"/>
<rect x="9.01416" y="5" width="27.0423" height="5" rx="2.5" fill="#344051"/>
<rect x="41.6899" y="5" width="27.0423" height="5" rx="2.5" fill="#344051"/>
<rect x="9.01416" y="23" width="27.0423" height="5" rx="2.5" fill="#344051"/>
<rect x="143.099" y="23" width="7.88732" height="5" rx="2.5" fill="#F64C4C"/>
<rect x="132.958" y="23" width="7.88732" height="5" rx="2.5" fill="#40BF7F"/>
<path d="M9.01416 38C9.01416 35.7909 10.805 34 13.0142 34H118.817C121.026 34 122.817 35.7909 122.817 38V71C122.817 73.2091 121.026 75 118.817 75H13.0142C10.805 75 9.01416 73.2091 9.01416 71V38Z" fill="#344051"/>
<path d="M127.324 38C127.324 35.7909 129.115 34 131.324 34H146.986C149.195 34 150.986 35.7909 150.986 38V53C150.986 55.2091 149.195 57 146.986 57H131.324C129.115 57 127.324 55.2091 127.324 53V38Z" fill="#344051"/>
<rect x="74.3662" y="5" width="27.0423" height="5" rx="2.5" fill="#344051"/>
</svg>
